<?xml version="1.0" standalone="no"?>
<!DOCTYPE svg PUBLIC "-//W3C//DTD SVG 20010904//EN"
 "http://www.w3.org/TR/2001/REC-SVG-20010904/DTD/svg10.dtd">
<svg version="1.0" xmlns="http://www.w3.org/2000/svg"
 width="1280.000000pt" height="1270.000000pt" viewBox="0 0 1280.000000 1270.000000"
 preserveAspectRatio="xMidYMid meet">
<metadata>
Created by potrace 1.15, written by Peter Selinger 2001-2017
</metadata>
<g transform="translate(0.000000,1270.000000) scale(0.100000,-0.100000)"
fill="#000000" stroke="none">
<path d="M5955 12693 c-1393 -64 -2855 -393 -4515 -1015 -102 -38 -216 -82
-255 -98 -38 -16 -155 -63 -260 -103 -765 -300 -976 -525 -914 -974 33 -241
223 -798 404 -1188 51 -110 98 -225 105 -255 15 -66 67 -205 105 -281 34 -65
121 -196 134 -201 6 -1 59 -104 119 -228 81 -166 118 -255 141 -340 18 -63 46
-148 62 -190 57 -141 169 -326 213 -349 13 -7 46 -65 88 -154 55 -117 69 -160
83 -242 35 -203 107 -405 200 -561 64 -107 102 -144 150 -144 l32 0 112 -226
c61 -124 111 -232 111 -239 0 -27 61 -244 89 -316 84 -217 208 -409 263 -409
25 0 233 -416 242 -485 12 -86 55 -261 82 -337 51 -142 168 -352 225 -404 11
-10 38 -20 61 -23 l41 -6 168 -329 c166 -326 168 -331 189 -445 40 -214 122
-424 236 -598 57 -88 86 -113 140 -122 35 -6 38 -11 175 -276 419 -806 751
-1434 792 -1495 113 -169 243 -225 392 -169 31 11 230 120 443 241 213 122
394 223 403 225 12 4 31 -30 81 -149 93 -218 168 -417 228 -608 29 -91 54
-172 57 -180 5 -13 121 328 137 402 6 25 9 23 98 -65 78 -77 276 -232 285
-223 2 2 -19 50 -46 107 -27 58 -105 240 -174 405 -69 165 -148 351 -177 414
-28 63 -54 122 -56 130 -3 11 148 99 558 325 2306 1270 3186 1771 4013 2288
484 303 1061 689 1090 730 56 80 -39 206 -169 223 l-44 6 -11 56 c-16 79 -14
267 5 373 52 304 218 715 452 1124 l63 110 199 103 199 104 -14 28 c-18 35
-115 121 -710 625 -1971 1674 -3316 2854 -4390 3854 -576 537 -1196 1148
-1465 1444 l-105 115 -50 -1 c-27 0 -77 -2 -110 -4z m-508 -184 c299 -83 645
-196 913 -298 l135 -52 225 -222 c1052 -1042 2899 -2696 4931 -4415 84 -71 87
-75 93 -125 8 -67 6 -1015 -3 -1131 l-6 -90 -460 -249 c-816 -441 -1677 -916
-2570 -1417 -394 -222 -1705 -965 -1780 -1010 l-30 -18 -155 201 c-1849 2398
-3238 4370 -4472 6347 -350 562 -916 1506 -907 1514 8 6 398 149 604 221 1103
383 2092 623 3115 755 118 15 216 28 217 29 1 0 69 -17 150 -40z m-4211 -2018
c-3 -4 -38 -11 -78 -14 -287 -24 -477 -244 -554 -642 -26 -134 -24 -421 4
-576 38 -206 108 -393 195 -521 25 -36 43 -69 40 -72 -38 -38 -148 138 -218
347 -65 198 -90 380 -82 602 11 310 90 543 237 699 115 122 247 185 388 186
40 0 71 -4 68 -9z m541 -837 c8 -21 -14 -34 -57 -34 -50 0 -142 -25 -208 -58
-79 -38 -205 -165 -260 -263 -251 -447 -213 -1220 82 -1658 37 -54 43 -75 27
-85 -19 -12 -38 7 -90 89 -203 323 -286 804 -212 1237 61 353 217 610 438 720
125 62 266 88 280 52z m590 -930 c9 -25 -10 -35 -93 -50 -261 -45 -488 -283
-603 -634 -163 -497 -104 -1113 143 -1479 40 -59 43 -84 9 -89 -18 -3 -31 10
-66 65 -82 126 -138 260 -181 428 -75 297 -74 671 3 972 104 405 338 699 624
783 80 24 155 26 164 4z m644 -1024 c41 -23 12 -70 -43 -70 -78 -1 -266 -96
-370 -189 -144 -129 -282 -384 -348 -645 -126 -499 -51 -1055 189 -1411 44
-64 49 -86 27 -104 -22 -18 -38 -5 -88 72 -261 402 -330 977 -182 1510 124
447 397 759 727 831 34 8 63 14 65 15 2 1 12 -4 23 -9z m743 -1192 c14 -23 -2
-50 -35 -60 -230 -66 -318 -115 -460 -257 -286 -287 -449 -726 -449 -1209 1
-327 75 -600 227 -836 50 -77 53 -109 11 -114 -24 -3 -33 6 -79 75 -193 296
-276 705 -225 1113 82 653 444 1174 896 1289 87 23 99 22 114 -1z m8478 -200
c-49 -79 -225 -445 -275 -573 -124 -314 -171 -522 -170 -755 0 -173 16 -256
74 -376 17 -37 27 -69 22 -74 -4 -4 -244 -141 -533 -305 -289 -164 -1220 -693
-2070 -1175 -1872 -1062 -2928 -1660 -2934 -1660 -3 0 -28 39 -57 86 -81 135
-193 279 -296 381 -51 51 -99 93 -105 93 -6 0 -111 -58 -232 -129 -122 -72
-229 -133 -238 -136 -28 -11 -12 -22 39 -29 133 -19 226 -87 327 -240 60 -90
151 -255 144 -261 -5 -5 -371 -210 -543 -303 -113 -62 -124 -66 -187 -67 -58
0 -72 4 -110 30 -92 65 -203 280 -233 449 -4 22 -6 83 -6 135 2 379 298 773
931 1237 395 290 1038 692 1810 1132 1197 682 2799 1573 3840 2135 190 102
449 242 575 310 127 69 234 125 238 126 5 1 0 -14 -11 -31z m-7634 -1184 c4
-32 -12 -44 -89 -65 -90 -25 -224 -90 -304 -149 -157 -114 -331 -332 -436
-545 -142 -291 -206 -591 -196 -915 10 -311 88 -571 237 -790 41 -60 49 -97
28 -118 -36 -36 -81 13 -172 189 -178 340 -228 762 -141 1184 107 521 399 962
765 1154 123 64 256 105 285 87 11 -8 21 -22 23 -32z"/>
</g>
</svg>
